# xmcd
# 
# Track frame offsets:
#     183
#     22295
#     44715
#     57810
#     77335
#     86578
#     97933
#     123348
#     140783
#     168823
# 
# Disc length: 2562
# 
# Revision: 21
# Processed by: cddbd v1.5.2PL0 Copyright (c) Steve Scherf et al.
# Submitted via: fre:ac v1.1beta1pre5
# 
DISCID=7e0a000a
DTITLE=Van Morrison - Avalon Sunset
DYEAR=1989
DGENRE=Rock
TTITLE0=Whenever God Shines His Light
TTITLE1=Contacting My Angel
TTITLE2=I'd Love To Write Another Song
TTITLE3=Have I Told You Lately
TTITLE4=Coney Island
TTITLE5=I'm Tired Joey Boy
TTITLE6=When Will I Ever Learn To Live In God
TTITLE7=Orangefield
TTITLE8=Daring Night
TTITLE9=These Are The Days
EXTD=
EXTT0=
EXTT1=
EXTT2=
EXTT3=
EXTT4=
EXTT5=
EXTT6=
EXTT7=
EXTT8=
EXTT9=
PLAYORDER=
